<svg width="382" height="514" viewBox="0 0 382 514" fill="none" xmlns="http://www.w3.org/2000/svg">
<path d="M221.277 299.516C221.277 299.516 221.306 342.369 227.032 354.952C232.069 366.022 259.471 378.849 259.471 378.849C259.471 378.849 285.394 356.344 272.563 333.124C259.731 309.903 245.306 298.699 221.277 299.516Z" fill="url(#paint0_linear_1_2)"/>
<path d="M259.55 379.421L259.265 379.287C258.14 378.76 231.644 366.256 226.59 355.151C220.886 342.617 220.793 301.269 220.792 299.515V299.046L221.261 299.03C244.242 298.249 259.265 308.056 272.987 332.888C285.858 356.182 260.05 378.986 259.789 379.214L259.55 379.421ZM221.764 299.986C221.792 304.692 222.176 343.111 227.473 354.75C232.104 364.927 256.442 376.857 259.386 378.271C261.932 375.937 283.978 354.785 272.138 333.357C258.715 309.066 244.072 299.373 221.764 299.986Z" fill="url(#paint1_linear_1_2)"/>
<path d="M159.771 299.557C159.771 299.557 159.799 342.41 154.09 355C149.067 366.076 121.682 378.94 121.682 378.94C121.682 378.94 95.729 356.469 108.529 333.232C121.33 309.995 135.74 298.772 159.771 299.557Z" fill="url(#paint2_linear_1_2)"/>
<path d="M121.603 379.513L121.365 379.306C121.103 379.079 95.263 356.309 108.105 332.998C121.794 308.148 136.754 298.321 159.787 299.071L160.256 299.086V299.555C160.257 301.309 160.219 342.657 154.532 355.199C149.494 366.31 123.014 378.85 121.889 379.378L121.603 379.513ZM157.401 300.002C136.124 300.002 121.965 309.847 108.954 333.466C97.142 354.91 119.217 376.032 121.766 378.362C124.709 376.944 149.031 364.98 153.649 354.798C158.93 343.152 159.264 304.732 159.285 300.026C158.65 300.011 158.022 300.002 157.401 300.002Z" fill="url(#paint3_linear_1_2)"/>
<path d="M273.596 370.023C273.875 369.568 274.151 369.11 274.424 368.65C263.798 363.178 241.97 351.492 231.61 342.725C226.087 324.94 228.382 265.995 228.382 265.995L221.108 265.903C221.134 265.367 221.151 265.074 221.151 265.074L188.49 265.489L155.829 265.074C155.829 265.074 155.846 265.367 155.872 265.903L148.597 265.995C148.597 265.995 150.892 324.94 145.369 342.725C135.009 351.492 113.181 363.178 102.555 368.65C102.828 369.11 103.104 369.568 103.383 370.023C103.402 370.054 103.422 370.084 103.441 370.115C103.131 370.264 102.834 370.41 102.555 370.552C103.244 372.333 103.972 374.102 104.839 375.804C105.814 377.72 107.049 379.529 108.291 381.279C113.546 388.681 120.166 395.069 127.179 400.791C130.69 403.655 134.4 406.246 138.263 408.576C144.162 412.574 150.542 415.867 157.239 418.304C164.716 421.024 172.579 422.685 180.527 423.118C183.169 423.262 185.829 423.283 188.49 423.196C191.151 423.282 193.81 423.261 196.453 423.118C204.4 422.685 212.264 421.024 219.741 418.304C226.438 415.868 232.818 412.574 238.717 408.577C242.579 406.247 246.29 403.656 249.801 400.791C256.815 395.069 263.434 388.681 268.689 381.279C269.931 379.529 271.166 377.719 272.141 375.804C273.008 374.101 273.736 372.332 274.425 370.552C274.146 370.411 273.849 370.265 273.539 370.115C273.557 370.084 273.577 370.054 273.596 370.023Z" fill="#EFB291"/>
<path opacity="0.64" d="M148.906 307.435C154.02 311.825 159.088 316.291 164.693 320.05C171.208 324.42 178.521 327.725 186.44 328.225C190.356 328.472 194.371 328.018 198.224 327.333C202.26 326.616 206.229 325.532 210.094 324.169C216.478 321.916 222.592 318.902 228.335 315.313C227.351 292.49 228.382 265.995 228.382 265.995L221.108 265.903C221.134 265.367 221.151 265.074 221.151 265.074L188.49 265.489L155.829 265.074C155.829 265.074 155.846 265.367 155.872 265.903L148.597 265.995C148.597 265.995 149.407 286.811 148.906 307.435Z" fill="#EFB291"/>
<path opacity="0.64" d="M273.596 370.023C273.875 369.568 274.151 369.11 274.424 368.65C265.522 364.066 248.764 355.122 237.467 347.186C237.559 352.785 237.455 358.385 236.763 363.947C236.234 368.204 235.363 372.418 234.036 376.5C232.868 380.092 231.46 383.736 229.309 386.863C226.107 391.517 221.531 395.046 216.528 397.586C211.107 400.338 205.177 402.026 199.19 402.991C193.093 403.974 186.873 404.235 180.714 403.799C175.135 403.404 169.542 402.462 164.255 400.601C158.147 398.451 152.412 395.109 148.063 390.253C144.219 385.961 141.654 380.716 140.143 375.182C138.546 369.333 138.042 363.226 138 357.181C137.979 354.138 138.081 351.097 138.251 348.059C126.999 355.769 111.131 364.232 102.555 368.648C102.828 369.108 103.104 369.566 103.383 370.021C103.402 370.052 103.422 370.082 103.441 370.113C103.131 370.262 102.834 370.408 102.555 370.55C103.244 372.331 103.972 374.1 104.839 375.802C105.814 377.718 107.049 379.527 108.291 381.277C113.546 388.679 120.166 395.067 127.179 400.789C130.69 403.653 134.4 406.244 138.263 408.574C144.162 412.572 150.542 415.865 157.239 418.302C164.716 421.022 172.579 422.683 180.527 423.116C183.169 423.26 185.829 423.281 188.49 423.194C191.151 423.28 193.81 423.259 196.453 423.116C204.4 422.683 212.264 421.022 219.741 418.302C226.438 415.866 232.818 412.572 238.717 408.575C242.579 406.245 246.29 403.654 249.801 400.789C256.815 395.067 263.434 388.679 268.689 381.277C269.931 379.527 271.166 377.717 272.141 375.802C273.008 374.099 273.736 372.33 274.425 370.55C274.146 370.409 273.849 370.263 273.539 370.113C273.557 370.084 273.577 370.054 273.596 370.023Z" fill="#EFB291"/>
<path d="M374.658 505.342C370.189 484.857 353.729 411.614 344.095 398.557C332.871 383.346 272.928 357.605 240.482 348.815C240.482 348.815 254.96 407.427 190.597 409.072C121.197 410.32 136.304 349.123 136.304 349.123C103.87 357.956 48.289 383.535 37.085 398.762C27.507 411.779 11.236 484.512 6.71698 505.343L374.658 505.342Z" fill="url(#paint4_linear_1_2)"/>
<path d="M374.658 505.342C370.189 484.857 353.729 411.614 344.095 398.557C334.785 385.939 291.951 366.076 259.097 354.653C259.364 365.327 254.659 375.809 249.485 384.886C246.755 389.676 243.705 394.279 240.486 398.752C237.104 403.452 233.617 408.053 230.492 412.935C224.151 422.842 218.959 433.444 215.124 444.567C211.167 456.041 208.488 468.01 207.134 480.07C206.2 488.392 205.849 496.951 206.736 505.34H374.658V505.342Z" fill="url(#paint5_linear_1_2)"/>
<path d="M170.015 505.342C170.081 504.887 170.151 504.432 170.215 503.978C170.702 500.517 171.159 497.027 171.296 493.531C171.433 490.038 171.477 486.535 171.458 483.04C171.388 469.964 169.843 456.931 165.943 444.42C162.366 432.944 157.004 422.104 150.55 411.982C143.578 401.048 135.506 390.879 129.072 379.593C126.102 374.384 124.043 368.747 122.912 362.859C122.327 359.816 121.976 356.74 121.769 353.653C89.408 364.803 46.747 385.631 37.085 398.761C27.507 411.778 11.236 484.511 6.71698 505.342H170.015Z" fill="url(#paint6_linear_1_2)"/>
<path d="M167.101 505.342C167.842 493.05 169.238 448.421 152.399 426.459C132.758 400.84 103.758 365.004 107.027 356.697L106.297 357.604C106.297 357.604 49.841 378.467 36.237 397.7C24.179 414.747 9.01298 488.741 5.72198 505.342H167.101Z" fill="url(#paint7_linear_1_2)"/>
<path d="M87.064 376.742C88.552 379.078 90.159 381.333 91.769 383.586C93.408 385.88 95.01 388.201 96.696 390.461C100.402 395.426 104.438 400.155 108.954 404.405C113.405 408.592 118.316 412.289 123.194 415.958C132.728 423.13 142.54 430.102 150.755 438.822C154.758 443.071 158.375 447.712 161.291 452.777C162.579 455.014 163.725 457.328 164.746 459.697C162.605 447.498 158.813 435.485 152.246 426.92C132.605 401.301 103.605 365.465 106.874 357.158L106.144 358.065C106.144 358.065 95.578 361.971 82.488 367.958C83.635 371.063 85.322 374.007 87.064 376.742Z" fill="url(#paint8_linear_1_2)"/>
<path d="M61.198 505.342C61.184 504.937 61.168 504.531 61.155 504.126C61.06 501.297 60.995 498.467 60.936 495.637C60.822 490.119 60.564 484.591 60.774 479.074C60.976 473.757 61.408 468.452 61.595 463.134C61.755 458.593 61.752 454.018 61.217 449.5C60.568 454.093 59.8 458.669 59.086 463.252C57.602 472.778 56.579 482.391 56.488 492.039C56.446 496.477 56.577 500.911 56.775 505.343L61.198 505.342Z" fill="url(#paint9_linear_1_2)"/>
<path d="M154.743 427.926C152.411 422.393 149.769 417.02 146.604 411.913C143.678 407.193 140.574 402.588 137.423 398.016C132.815 391.33 128.052 384.668 124.031 377.594C123.469 376.606 122.928 375.606 122.398 374.6C122.018 373.214 121.591 371.853 121.113 370.499C120.595 369.033 120.225 367.557 119.96 366.026C119.407 362.836 119.301 359.602 119.328 356.371C119.355 353.246 119.558 350.115 120.069 347.03C120.565 344.032 121.442 341.156 122.496 338.312C124.368 333.264 126.598 328.352 129.309 323.698C131.981 319.11 135.136 314.811 138.827 310.99C140.729 309.02 142.781 307.206 144.924 305.502C146.301 304.407 147.736 303.369 149.244 302.456C149.218 301.361 149.207 300.265 149.258 299.173C148.278 299.29 147.301 299.427 146.331 299.608C143.593 300.118 140.904 300.891 138.281 301.824C133.077 303.675 128.121 306.251 123.55 309.347C119.172 312.312 115.05 315.798 111.518 319.739C108.042 323.618 105.091 328.079 103.529 333.083C103.306 333.797 103.113 334.517 102.937 335.241C101.533 337.245 100.083 339.212 98.389 340.987C94.641 344.914 89.839 347.757 86.522 352.107C80.485 360.023 85.339 370.241 90.221 377.368C93.039 381.482 96.307 385.291 99.675 388.959C103.649 393.286 107.868 397.39 112.29 401.257C116.716 405.128 121.406 408.616 126.091 412.159C130.87 415.773 135.506 419.587 139.938 423.621C139.99 423.668 140.04 423.717 140.092 423.764C142.589 425.684 145.043 427.66 147.455 429.685C151.779 433.316 156.042 437.025 159.946 441.11C158.336 436.669 156.574 432.272 154.743 427.926Z" fill="url(#paint10_linear_1_2)"/>
<path d="M99.333 342.173C99.512 342.101 99.722 342.252 99.769 342.421C100.887 346.429 102.061 350.421 103.349 354.378C105.538 361.104 108.063 367.728 111.157 374.093C111.63 375.065 112.12 376.029 112.619 376.987C112.07 375.838 111.536 374.682 111.032 373.511C108.408 367.413 106.413 360.996 105.71 354.375C105.069 348.343 105.499 342.049 107.734 336.366C109.795 331.125 113.098 326.344 117.181 322.473C121.198 318.665 126.128 315.624 131.601 314.514C131.943 314.445 132.2 314.841 131.946 315.107C131.557 315.515 131.178 315.932 130.812 316.361C127.736 319.959 125.51 324.239 123.845 328.649C122.182 333.054 121.045 337.65 120.256 342.288C119.811 344.901 119.482 347.511 119.455 350.165C119.448 350.843 119.459 351.521 119.485 352.199C119.602 350.468 119.787 348.742 120.071 347.03C120.567 344.032 121.444 341.156 122.498 338.312C124.37 333.264 126.6 328.352 129.311 323.698C131.983 319.11 135.138 314.811 138.829 310.99C140.731 309.02 142.783 307.206 144.926 305.502C146.303 304.407 147.738 303.369 149.246 302.456C149.22 301.361 149.209 300.265 149.26 299.173C148.28 299.29 147.303 299.427 146.333 299.608C143.595 300.118 140.906 300.891 138.283 301.824C133.079 303.675 128.123 306.251 123.552 309.347C119.174 312.312 115.052 315.798 111.52 319.739C108.044 323.618 105.093 328.079 103.531 333.083C103.308 333.797 103.115 334.517 102.939 335.241C101.535 337.245 100.085 339.212 98.391 340.987C97.086 342.354 95.653 343.59 94.199 344.804C95.83 343.78 97.548 342.891 99.333 342.173Z" fill="url(#paint11_linear_1_2)"/>
<path d="M375.711 505.342C372.311 488.337 357.125 414.915 345.095 397.956C331.465 378.741 274.982 357.953 274.982 357.953L274.25 357.047C277.529 365.349 248.578 401.224 228.971 426.869C212.351 448.607 213.586 492.478 214.348 505.343L375.711 505.342Z" fill="url(#paint12_linear_1_2)"/>
<path d="M215.781 464.322C216.35 462.999 216.942 461.687 217.563 460.388C220.074 455.137 223.103 450.3 226.956 445.924C234.713 437.115 244.488 430.431 253.686 423.256C263.387 415.688 272.372 407.158 280.308 397.75C287.91 388.739 294.473 378.864 299.637 368.265C286.088 362.041 274.983 357.953 274.983 357.953L274.251 357.047C277.53 365.349 248.579 401.224 228.972 426.869C221.581 436.534 217.722 450.576 215.781 464.322Z" fill="url(#paint13_linear_1_2)"/>
<path d="M320.512 478.9C320.729 484.417 320.479 489.945 320.372 495.464C320.317 498.294 320.256 501.124 320.164 503.954C320.149 504.416 320.131 504.88 320.116 505.342H324.537C324.734 500.851 324.862 496.357 324.814 491.859C324.71 482.212 323.674 472.599 322.177 463.076C321.457 458.494 320.683 453.919 320.028 449.327C319.5 453.846 319.502 458.421 319.668 462.962C319.864 468.279 320.302 473.584 320.512 478.9Z" fill="url(#paint14_linear_1_2)"/>
<path d="M294.596 351.969C291.273 347.624 286.467 344.787 282.714 340.865C281.017 339.092 279.565 337.127 278.159 335.124C277.981 334.4 277.787 333.68 277.564 332.967C275.995 327.965 273.038 323.508 269.557 319.634C266.02 315.698 261.893 312.217 257.511 309.258C252.936 306.168 247.976 303.599 242.77 301.755C240.146 300.825 237.456 300.057 234.717 299.55C233.394 299.305 232.062 299.121 230.723 298.989C229.789 298.897 228.853 298.878 227.917 298.865C227.906 299.393 227.887 299.92 227.864 300.448C228.213 300.578 228.558 300.717 228.899 300.867C231.523 302.017 233.894 303.67 236.131 305.443C238.276 307.144 240.33 308.956 242.235 310.923C245.931 314.74 249.092 319.034 251.77 323.618C254.487 328.269 256.724 333.178 258.603 338.223C259.662 341.066 260.542 343.94 261.042 346.938C261.557 350.023 261.764 353.153 261.795 356.278C261.827 359.509 261.725 362.743 261.176 365.934C260.913 367.465 260.544 368.942 260.028 370.408C259.551 371.763 259.126 373.125 258.748 374.511C258.219 375.518 257.679 376.518 257.118 377.507C253.107 384.585 248.353 391.254 243.754 397.946C240.609 402.522 237.511 407.131 234.592 411.855C231.434 416.966 228.799 422.342 226.474 427.878C224.648 432.226 222.893 436.625 221.291 441.069C225.189 436.979 229.448 433.264 233.767 429.627C236.176 427.599 238.627 425.619 241.122 423.696C241.174 423.649 241.224 423.6 241.276 423.553C245.702 419.512 250.333 415.693 255.107 412.072C259.787 408.522 264.473 405.029 268.894 401.152C273.311 397.279 277.524 393.17 281.492 388.837C284.856 385.164 288.118 381.351 290.931 377.233C295.803 370.101 300.644 359.877 294.596 351.969Z" fill="url(#paint15_linear_1_2)"/>
<path d="M236.131 305.442C238.276 307.143 240.33 308.955 242.235 310.922C245.931 314.739 249.092 319.033 251.77 323.617C251.864 323.778 251.953 323.941 252.046 324.103C251.904 323.198 251.773 322.291 251.676 321.38C251.471 319.458 251.18 316.735 253.457 315.989C255.344 315.371 257.424 316.588 258.913 317.627C263.016 320.488 266.389 324.567 269.351 328.558C274.014 334.84 275.852 343.191 275.582 350.9C275.424 355.406 274.505 359.757 273.218 364.064C272.781 365.527 272.306 366.978 271.796 368.416C271.836 368.354 271.873 368.296 271.901 368.247C272.312 367.523 272.74 366.808 273.165 366.093C274.136 364.463 275.129 362.843 276.053 361.186C276.986 359.514 277.634 357.697 278.422 355.955C278.928 354.836 279.465 353.723 280.112 352.677C280.626 351.847 281.222 351.001 282.028 350.429C282.72 349.938 283.656 349.68 284.485 349.546C285.293 349.416 286.107 349.42 286.911 349.573C288.517 349.879 289.947 350.781 291.134 351.878C293.941 354.471 295.717 358.127 297.077 361.639C297.158 361.847 297.235 362.059 297.314 362.269C297.694 358.696 297.024 355.146 294.595 351.97C291.272 347.625 286.466 344.788 282.713 340.866C281.016 339.093 279.564 337.128 278.158 335.125C277.98 334.401 277.786 333.681 277.563 332.968C275.994 327.966 273.037 323.509 269.556 319.635C266.019 315.699 261.892 312.218 257.51 309.259C252.935 306.169 247.975 303.6 242.769 301.756C240.145 300.826 237.455 300.058 234.716 299.551C233.393 299.306 232.061 299.122 230.722 298.99C229.788 298.898 228.852 298.879 227.916 298.866C227.905 299.394 227.886 299.921 227.863 300.449C228.212 300.579 228.557 300.718 228.898 300.868C231.523 302.015 233.895 303.669 236.131 305.442Z" fill="url(#paint16_linear_1_2)"/>
<path d="M151.194 427.36C150.929 426.902 150.626 426.469 150.269 426.084C149.463 425.215 148.139 424.6 146.981 425.183C146.165 425.593 145.899 426.543 145.811 427.438C149.318 439.556 148.526 453.219 147.648 465.537C147.556 466.827 147.447 468.115 147.331 469.402C146.726 473.313 146.089 477.22 145.524 481.136C145.004 484.738 144.576 488.329 144.448 491.967C144.32 493.231 144.236 494.498 144.233 495.765C144.231 496.633 144.205 497.771 144.337 498.871C144.43 500.163 144.642 501.426 145.073 502.603C145.801 504.595 149.23 503.097 149.101 501.298C149.018 500.141 149.006 499.252 148.466 498.268C148.063 495.192 148.504 491.741 148.69 488.842C148.741 488.049 148.808 487.257 148.882 486.466C149.047 485.509 149.211 484.552 149.358 483.593C149.95 479.728 150.461 475.85 150.877 471.963C152.049 464.314 153.216 456.655 153.606 448.919C153.937 442.346 154.145 434.794 151.682 428.557C151.559 428.243 151.394 427.829 151.194 427.36Z" fill="#D8D9DA"/>
<path d="M151.682 428.555C151.559 428.243 151.394 427.829 151.193 427.36C150.984 426.998 150.741 426.66 150.477 426.341C150.843 427.151 151.115 428.009 151.333 428.821C151.892 430.898 152.169 433.051 152.342 435.192C152.559 437.877 152.554 440.575 152.492 443.266C152.409 446.814 152.169 450.357 151.806 453.887C151.068 461.083 149.884 468.22 148.926 475.387C148.448 478.962 148.029 482.547 147.754 486.144C147.633 487.733 147.512 489.321 147.544 490.915C147.571 492.291 147.647 493.707 147.342 495.061C147.121 496.039 146.608 497.2 145.664 497.678C145.209 497.908 144.722 497.919 144.255 497.804C144.271 498.157 144.293 498.513 144.336 498.869C144.429 500.161 144.641 501.424 145.072 502.601C145.8 504.593 149.229 503.095 149.1 501.296C149.017 500.139 149.005 499.25 148.465 498.266C148.062 495.19 148.503 491.739 148.689 488.84C148.74 488.047 148.807 487.255 148.881 486.464C149.046 485.507 149.21 484.55 149.357 483.591C149.949 479.726 150.46 475.848 150.876 471.961C152.048 464.312 153.215 456.653 153.605 448.917C153.937 442.344 154.145 434.792 151.682 428.555Z" fill="#D8D9DA"/>
<path d="M150.843 497.927C150.721 497.59 150.467 497.374 150.164 497.26C149.653 496.36 148.081 497.131 147.487 497.507C146.631 498.049 145.861 498.766 145.214 499.535C144.182 500.762 142.49 503.044 143.748 504.632C145.289 506.578 147.765 504.034 148.627 502.756C149.12 502.025 149.539 501.245 149.947 500.466C150.305 499.784 151.126 498.707 150.843 497.927Z" fill="#D8D9DA"/>
<path d="M151.462 500.757C151.197 500.293 150.511 500.235 150.053 500.333C148.149 500.738 145.981 499.431 144.588 498.205C144.067 497.747 143.228 498.426 143.037 498.9C142.456 500.344 143.604 501.587 144.758 502.312C146.326 503.296 148.037 503.679 149.86 503.291C150.563 503.141 151.354 502.563 151.564 501.841C151.688 501.415 151.679 501.137 151.462 500.757Z" fill="white"/>
<path d="M233.534 427.36C233.799 426.902 234.102 426.469 234.459 426.084C235.265 425.215 236.589 424.6 237.747 425.183C238.563 425.593 238.829 426.543 238.917 427.438C235.41 439.556 236.202 453.219 237.08 465.537C237.172 466.827 237.281 468.115 237.397 469.402C238.002 473.313 238.639 477.22 239.204 481.136C239.724 484.738 240.152 488.329 240.28 491.967C240.408 493.231 240.492 494.498 240.495 495.765C240.497 496.633 240.523 497.771 240.391 498.871C240.298 500.163 240.086 501.426 239.655 502.603C238.927 504.595 235.498 503.097 235.627 501.298C235.71 500.141 235.722 499.252 236.262 498.268C236.665 495.192 236.224 491.741 236.038 488.842C235.987 488.049 235.92 487.257 235.846 486.466C235.681 485.509 235.517 484.552 235.37 483.593C234.778 479.728 234.267 475.85 233.85 471.963C232.678 464.314 231.511 456.655 231.121 448.919C230.79 442.346 230.582 434.794 233.045 428.557C233.168 428.243 233.333 427.829 233.534 427.36Z" fill="#D8D9DA"/>
<path d="M233.045 428.555C233.168 428.243 233.333 427.829 233.534 427.36C233.743 426.998 233.986 426.66 234.25 426.341C233.884 427.151 233.612 428.009 233.394 428.821C232.835 430.898 232.558 433.051 232.385 435.192C232.168 437.877 232.173 440.575 232.235 443.266C232.318 446.814 232.558 450.357 232.92 453.887C233.658 461.083 234.842 468.22 235.801 475.387C236.279 478.962 236.698 482.547 236.973 486.144C237.094 487.733 237.215 489.321 237.183 490.915C237.156 492.291 237.08 493.707 237.385 495.061C237.606 496.039 238.119 497.2 239.063 497.678C239.518 497.908 240.005 497.919 240.472 497.804C240.456 498.157 240.434 498.513 240.391 498.869C240.298 500.161 240.086 501.424 239.655 502.601C238.927 504.593 235.498 503.095 235.627 501.296C235.71 500.139 235.722 499.25 236.262 498.266C236.665 495.19 236.224 491.739 236.038 488.84C235.987 488.047 235.92 487.255 235.846 486.464C235.681 485.507 235.517 484.55 235.37 483.591C234.778 479.726 234.267 475.848 233.85 471.961C232.678 464.312 231.511 456.653 231.121 448.917C230.79 442.344 230.582 434.792 233.045 428.555Z" fill="#D8D9DA"/>
<path d="M234.78 500.467C235.188 501.246 235.606 502.026 236.1 502.757C236.963 504.035 239.439 506.579 240.979 504.633C242.237 503.045 240.545 500.762 239.513 499.536C238.867 498.768 238.096 498.05 237.24 497.508C236.646 497.132 235.074 496.361 234.563 497.261C234.26 497.375 234.006 497.591 233.884 497.928C233.602 498.707 234.422 499.784 234.78 500.467Z" fill="#D8D9DA"/>
<path d="M233.266 500.757C233.531 500.293 234.217 500.235 234.675 500.333C236.579 500.738 238.747 499.431 240.14 498.205C240.661 497.747 241.5 498.426 241.691 498.9C242.272 500.344 241.124 501.587 239.97 502.312C238.402 503.296 236.69 503.679 234.867 503.291C234.164 503.141 233.373 502.563 233.163 501.841C233.04 501.415 233.049 501.137 233.266 500.757Z" fill="white"/>
<path d="M297.33 196.441C294.201 186.479 283.119 181.53 272.76 185.354C266.835 187.541 262.536 192.982 260.126 198.327C258.721 201.442 257.925 204.823 257.514 208.181C255.386 214.207 254.409 220.812 254.856 227.087C255.173 231.531 255.832 239.671 260.708 242.055C265.462 244.38 272.936 240.482 276.933 238.152C282.009 235.194 286.181 231.056 289.563 226.466C295.932 217.823 300.638 206.972 297.33 196.441Z" fill="#EFB291"/>
<path opacity="0.64" d="M265.719 242.655C266.361 240.412 266.972 238.16 267.545 235.898C269.828 226.88 271.574 217.686 272.263 208.405C272.817 200.941 272.708 193.345 271.337 185.965C266.146 188.443 262.339 193.422 260.127 198.327C258.722 201.442 257.926 204.823 257.515 208.181C255.387 214.207 254.41 220.812 254.857 227.087C255.174 231.532 255.833 239.671 260.709 242.055C262.18 242.775 263.911 242.896 265.719 242.655Z" fill="#EB936D"/>
<path opacity="0.67" d="M292.392 196.785C291.238 194.902 289.149 193.801 286.983 193.538C281.996 192.934 276.902 196.429 273.775 199.944C266.815 207.769 265.592 219.044 265.263 229.021C265.244 229.605 266.108 229.194 266.167 228.787C266.404 227.177 266.644 225.542 266.907 223.898C267.112 225.072 267.411 226.224 267.706 227.256C268.287 229.283 269.579 231.077 271.855 231.183C277.35 231.439 281.108 224.949 283.737 221.232C283.984 220.883 283.427 220.786 283.221 221.024C280.764 223.852 278.226 227.555 274.544 228.924C271.581 230.026 270.247 227.909 269.422 225.496C268.742 223.507 267.671 221.205 268.107 219.083C268.167 218.789 268.05 218.637 267.872 218.585C268.889 213.713 270.335 208.929 272.819 204.681C274.976 200.992 278.262 197.621 282.47 196.282C285.336 195.37 288.47 195.825 290.259 198.415C291.929 200.833 291.442 204.039 291.861 206.813C291.911 207.143 292.444 206.822 292.455 206.591C292.608 203.328 294.28 199.865 292.392 196.785Z" fill="#EB936D"/>
<path d="M84.803 226.466C88.185 231.057 92.358 235.194 97.433 238.152C101.431 240.482 108.904 244.38 113.658 242.055C118.534 239.671 119.194 231.531 119.511 227.087C119.958 220.811 118.981 214.207 116.853 208.181C116.442 204.823 115.646 201.442 114.241 198.327C111.831 192.982 107.532 187.541 101.607 185.354C91.248 181.53 80.167 186.479 77.037 196.441C73.73 206.972 78.436 217.823 84.803 226.466Z" fill="#EFB291"/>
<path opacity="0.64" d="M108.649 242.655C108.008 240.412 107.396 238.16 106.824 235.898C104.541 226.88 102.795 217.686 102.106 208.405C101.552 200.941 101.661 193.345 103.032 185.965C108.223 188.443 112.03 193.422 114.242 198.327C115.647 201.442 116.443 204.823 116.854 208.181C118.982 214.207 119.959 220.812 119.512 227.087C119.195 231.532 118.536 239.671 113.659 242.055C112.188 242.775 110.457 242.896 108.649 242.655Z" fill="#EB936D"/>
<path opacity="0.67" d="M81.976 196.785C83.13 194.902 85.219 193.801 87.385 193.538C92.372 192.934 97.466 196.429 100.593 199.944C107.553 207.769 108.776 219.044 109.105 229.021C109.124 229.605 108.261 229.194 108.201 228.787C107.964 227.177 107.724 225.542 107.461 223.898C107.256 225.072 106.957 226.224 106.662 227.256C106.081 229.283 104.789 231.077 102.513 231.183C97.018 231.439 93.26 224.949 90.631 221.232C90.384 220.883 90.941 220.786 91.148 221.024C93.605 223.852 96.143 227.555 99.825 228.924C102.789 230.026 104.122 227.909 104.947 225.496C105.627 223.507 106.698 221.205 106.262 219.083C106.201 218.789 106.319 218.637 106.497 218.585C105.48 213.713 104.034 208.929 101.55 204.681C99.393 200.992 96.107 197.621 91.899 196.282C89.033 195.37 85.899 195.825 84.11 198.415C82.44 200.833 82.927 204.039 82.508 206.813C82.458 207.143 81.925 206.822 81.914 206.591C81.76 203.328 80.088 199.865 81.976 196.785Z" fill="#EB936D"/>
<path d="M274.717 161.325C276.301 143.512 277.305 125.664 276.011 107.782C275.146 95.824 272.776 82.957 263.818 74.771C259.726 71.032 254.578 68.601 249.392 66.532C220.337 54.942 184.57 52.253 154.264 60.755C139.584 64.874 125.939 72.134 113.746 81.127C108.913 84.691 104.484 88.681 101.321 93.25C100.677 94.703 100.133 96.199 99.722 97.731C99.196 99.691 99.065 101.722 98.931 103.738C96.762 136.452 99.944 169.234 104.835 201.585C106.934 215.471 109.605 229.223 111.748 243.141C113.895 257.079 115.91 275.429 127.264 285.186C133.547 290.586 140.586 295.052 147.604 299.47C154.449 303.78 161.062 308.644 168.454 312.039C177.651 316.263 188.571 317.504 198.58 314.805C209.091 311.97 217.853 305.147 226.872 299.469C233.889 295.051 240.929 290.584 247.212 285.185C249.966 282.818 252.306 280.222 254.071 277.063C255.766 274.03 256.958 270.751 257.876 267.42C264.996 241.566 269.498 214.968 272.092 188.326C272.966 179.337 273.916 170.336 274.717 161.325Z" fill="#EFB291"/>
<path opacity="0.28" d="M179.678 260.689C177.359 261.019 175.03 261.306 172.736 261.787C170.451 262.265 168.203 262.9 165.972 263.585C163.845 264.238 161.717 264.896 159.597 265.568C159.191 265.697 158.756 265.859 158.316 265.936C159.133 266.6 160.193 266.917 161.161 267.289C162.423 267.775 163.497 268.466 164.576 269.274C166.652 270.829 168.524 272.645 170.648 274.137C171.724 274.893 172.869 275.561 174.087 276.061C175.466 276.626 176.899 276.944 178.368 277.168C180.943 277.561 183.56 277.671 186.161 277.552C191.477 277.309 196.744 276.083 201.663 274.062C206.567 272.047 211.169 269.197 215.041 265.567C218.129 262.671 220.743 259.261 222.582 255.451C217.819 255.855 213.063 256.349 208.315 256.9C198.749 258.011 189.21 259.334 179.678 260.689Z" fill="#EB936D"/>
<path opacity="0.64" d="M181.525 236.883C178.044 236.399 174.678 235.377 171.445 234.047C171.709 235.383 172.35 236.649 173.279 237.755C174.854 239.631 177.006 241.034 179.284 241.966C181.38 242.824 183.758 243.386 186.039 243.102C188.915 242.744 191.734 241.681 194.173 240.162C196.318 238.826 198.302 237.013 199.372 234.725C197.312 235.489 195.201 236.121 193.04 236.546C189.244 237.294 185.358 237.416 181.525 236.883Z" fill="#EB936D"/>
<path d="M250.007 192.623C247.758 189.419 244.896 186.562 241.467 184.566C237.537 182.279 233.04 181.059 228.494 180.735C228.118 180.708 227.74 180.694 227.362 180.686C225.086 180.904 222.877 181.323 220.823 181.933C218.076 182.748 215.645 184.02 213.629 185.648C210.832 188.197 208.851 191.288 207.605 194.634C206.373 197.943 205.774 201.422 205.423 204.922C207.938 206.379 210.786 207.43 213.661 208.205C217.444 209.225 221.356 209.819 225.248 210.135C226.949 210.273 228.654 210.357 230.355 210.387C232.569 210.185 234.763 209.836 236.905 209.338C238.03 209.076 239.145 208.767 240.247 208.416C244.79 206.029 249.018 203.029 252.791 199.594C252.842 198.905 252.866 198.214 252.866 197.521C252.047 195.818 251.096 194.175 250.007 192.623Z" fill="white"/>
<path d="M242.251 197.355C240.562 204.858 232.971 209.601 225.298 207.949C217.624 206.297 212.773 198.876 214.462 191.374C216.151 183.871 223.742 179.128 231.415 180.78C239.089 182.432 243.941 189.853 242.251 197.355Z" fill="#B65A2C"/>
<path d="M238.703 196.592C237.445 202.179 231.793 205.71 226.079 204.481C220.365 203.251 216.753 197.725 218.01 192.139C219.268 186.552 224.92 183.021 230.634 184.25C236.348 185.479 239.961 191.005 238.703 196.592Z" fill="#552400"/>
<path d="M228.282 188.494C227.784 190.706 225.546 192.105 223.283 191.618C221.02 191.131 219.589 188.943 220.088 186.73C220.586 184.518 222.825 183.119 225.088 183.606C227.349 184.093 228.78 186.281 228.282 188.494Z" fill="white"/>
<path d="M219.614 192.843C219.467 193.496 218.806 193.909 218.138 193.766C217.47 193.622 217.047 192.976 217.195 192.323C217.342 191.67 218.003 191.257 218.671 191.401C219.339 191.544 219.761 192.19 219.614 192.843Z" fill="white"/>
<path d="M247.326 203.872C245.675 205.238 243.645 206.068 241.669 206.89C239.344 207.857 236.967 208.658 234.488 209.15C229.224 210.194 223.923 209.725 218.666 208.875C215.8 208.411 212.826 207.897 210.083 206.944C210.032 206.926 209.936 207.014 209.998 207.051C212.21 208.378 214.708 209.001 217.203 209.606C220.019 210.288 222.954 210.635 225.843 210.865C228.467 211.074 231.113 210.928 233.704 210.48C236.321 210.028 238.988 209.309 241.392 208.187C242.554 207.645 243.73 207.067 244.827 206.406C245.822 205.807 246.948 205.026 247.552 204.024C247.645 203.868 247.45 203.77 247.326 203.872Z" fill="#9E7761"/>
<path d="M250.33 189.615C249.578 188.718 248.784 187.869 247.977 187.092C244.573 183.813 240.382 181.351 235.759 180.123C231.08 178.88 225.932 178.854 221.268 180.186C216.365 181.587 211.885 184.59 209 188.742C208.657 189.236 208.344 189.744 208.05 190.26C206.145 193.893 205.235 198.019 205.664 202.071C205.853 201.373 206.049 200.677 206.262 199.986C206.453 199.129 206.659 198.277 206.913 197.429C207.633 195.023 208.445 192.693 209.793 190.544C212.219 186.675 216.013 183.803 220.378 182.301C228.887 179.373 238.567 181.825 245.225 187.535C247.195 189.224 248.956 191.196 250.439 193.307C251.162 194.336 251.851 195.407 252.464 196.517C252.059 194.147 251.365 191.799 250.33 189.615Z" fill="#360E00"/>
<path d="M120.345 193.078C122.594 189.874 125.456 187.017 128.884 185.021C132.814 182.734 137.312 181.514 141.857 181.19C142.233 181.163 142.611 181.149 142.989 181.141C145.265 181.359 147.474 181.778 149.528 182.388C152.275 183.204 154.706 184.475 156.722 186.103C159.519 188.652 161.5 191.743 162.746 195.089C163.978 198.399 164.577 201.877 164.928 205.377C162.413 206.834 159.565 207.885 156.69 208.66C152.907 209.68 148.995 210.274 145.103 210.59C143.402 210.728 141.697 210.812 139.996 210.843C137.782 210.641 135.588 210.292 133.446 209.794C132.321 209.532 131.206 209.223 130.104 208.873C125.561 206.486 121.333 203.486 117.56 200.051C117.509 199.362 117.485 198.671 117.485 197.978C118.305 196.273 119.255 194.63 120.345 193.078Z" fill="white"/>
<path d="M142.615 208.728C150.437 208.728 156.778 202.528 156.778 194.881C156.778 187.234 150.437 181.034 142.615 181.034C134.793 181.034 128.452 187.234 128.452 194.881C128.452 202.528 134.793 208.728 142.615 208.728Z" fill="#B65A2C"/>
<path d="M152.914 197.098C151.662 202.659 146.035 206.175 140.347 204.951C134.659 203.727 131.063 198.226 132.315 192.665C133.567 187.104 139.194 183.588 144.882 184.812C150.57 186.036 154.166 191.537 152.914 197.098Z" fill="#552400"/>
<path d="M142.54 189.036C142.044 191.238 139.816 192.631 137.563 192.146C135.31 191.661 133.886 189.483 134.382 187.28C134.878 185.078 137.106 183.685 139.359 184.17C141.612 184.656 143.036 186.834 142.54 189.036Z" fill="white"/>
<path d="M133.912 193.367C133.766 194.017 133.108 194.429 132.443 194.285C131.778 194.142 131.357 193.499 131.504 192.848C131.65 192.198 132.308 191.786 132.973 191.93C133.638 192.073 134.058 192.716 133.912 193.367Z" fill="white"/>
<path d="M123.026 204.327C124.677 205.693 126.707 206.523 128.683 207.345C131.008 208.312 133.384 209.113 135.864 209.604C141.128 210.648 146.429 210.18 151.686 209.329C154.552 208.865 157.526 208.351 160.269 207.398C160.321 207.38 160.416 207.468 160.354 207.505C158.142 208.831 155.644 209.455 153.149 210.06C150.333 210.742 147.398 211.089 144.509 211.319C141.885 211.528 139.239 211.382 136.648 210.934C134.031 210.481 131.364 209.763 128.96 208.641C127.798 208.099 126.622 207.521 125.525 206.86C124.53 206.261 123.404 205.48 122.8 204.478C122.706 204.323 122.902 204.225 123.026 204.327Z" fill="#9E7761"/>
<path d="M120.022 190.07C120.775 189.173 121.568 188.324 122.375 187.547C125.779 184.268 129.97 181.806 134.593 180.578C139.272 179.335 144.42 179.309 149.084 180.641C153.987 182.041 158.467 185.045 161.352 189.197C161.695 189.691 162.008 190.199 162.302 190.715C164.207 194.348 165.117 198.474 164.688 202.526C164.499 201.828 164.303 201.132 164.09 200.441C163.899 199.584 163.693 198.732 163.439 197.884C162.719 195.478 161.906 193.148 160.559 190.999C158.133 187.13 154.339 184.258 149.974 182.756C141.465 179.828 131.785 182.28 125.127 187.99C123.157 189.679 121.396 191.651 119.913 193.762C119.19 194.791 118.501 195.862 117.888 196.972C118.292 194.602 118.987 192.254 120.022 190.07Z" fill="#360E00"/>
<path d="M262.719 171.588C261.335 168.622 259.751 165.861 257.552 163.951C253.971 160.841 249.577 159.593 245.402 158.922C241.121 158.234 236.796 158.195 232.493 158.423C226.953 158.716 221.419 159.379 215.938 160.504C211.497 161.415 207.088 162.634 202.757 164.242C203.345 166.554 204.134 168.829 205.104 170.909C205.32 171.147 205.539 171.379 205.76 171.602C206.213 172.058 206.682 172.48 207.163 172.872C209.685 173.541 212.299 173.675 214.861 173.537C219.132 173.307 223.356 172.338 227.56 171.36C229.485 170.912 231.41 170.455 233.344 170.081C235.66 169.632 237.992 169.311 240.318 168.97C242.895 168.592 245.481 168.284 248.075 168.265C250.461 168.247 252.925 168.378 255.246 169.185C257.907 170.11 260.326 171.861 262.802 173.422C263.009 173.214 263.156 172.899 263.058 172.631C262.933 172.288 262.825 171.939 262.719 171.588Z" fill="#360E00"/>
<path d="M109.144 171.588C110.528 168.622 112.112 165.861 114.311 163.951C117.892 160.841 122.285 159.593 126.461 158.922C130.742 158.234 135.067 158.195 139.37 158.423C144.91 158.716 150.443 159.379 155.925 160.504C160.366 161.415 164.775 162.634 169.106 164.242C168.518 166.554 167.729 168.829 166.759 170.909C166.543 171.147 166.324 171.379 166.103 171.602C165.65 172.058 165.181 172.48 164.7 172.872C162.178 173.541 159.564 173.675 157.002 173.537C152.731 173.307 148.507 172.338 144.303 171.36C142.378 170.912 140.453 170.455 138.519 170.081C136.204 169.632 133.871 169.311 131.545 168.97C128.969 168.592 126.382 168.284 123.788 168.265C121.402 168.247 118.938 168.378 116.617 169.185C113.956 170.11 111.537 171.861 109.061 173.422C108.854 173.214 108.707 172.899 108.804 172.631C108.929 172.288 109.038 171.939 109.144 171.588Z" fill="#360E00"/>
<path opacity="0.65" d="M196.9 237.932C194.38 239.805 191.501 241.489 188.347 242.058C186.805 242.336 185.348 242.271 183.842 241.85C182.34 241.43 180.883 240.855 179.507 240.133C178.088 239.388 176.786 238.47 175.583 237.426C175.001 236.921 174.448 236.393 173.934 235.821C173.453 235.285 172.883 234.69 172.559 234.044C172.495 233.917 172.462 233.764 172.382 233.647C172.301 233.53 172.181 233.471 172.13 233.33C172.015 233.014 172.073 232.545 172.09 232.22C172.13 231.477 172.286 230.752 172.475 230.033C172.874 228.52 173.34 227.019 173.775 225.515C174.988 221.322 176.292 217.158 177.393 212.935C177.43 212.794 177.222 212.831 177.186 212.931C175.792 216.909 174.303 220.855 172.979 224.856C172.43 226.516 171.864 228.176 171.348 229.846C171.113 230.608 170.919 231.381 170.785 232.166C170.725 232.52 170.683 232.876 170.674 233.235C170.669 233.419 170.69 233.604 170.685 233.787C170.679 234.008 170.575 234.213 170.567 234.431C170.538 235.197 171.054 235.941 171.499 236.519C172.009 237.182 172.568 237.808 173.166 238.396C174.399 239.609 175.799 240.643 177.322 241.485C180.349 243.159 183.812 243.969 187.279 243.461C191 242.916 194.752 241.033 197.27 238.284C197.53 238 197.198 237.71 196.9 237.932Z" fill="#92422B"/>
<path opacity="0.65" d="M196.9 276.657C193.585 276.967 190.221 277.177 186.883 277.166C185.632 277.242 184.379 277.318 183.126 277.308C182.292 277.301 181.458 277.253 180.65 277.103C179.221 277.156 177.805 277.317 176.446 277.7C176.496 277.769 176.566 277.831 176.666 277.881C180.028 279.582 183.977 279.076 187.612 278.898C189.62 278.8 191.617 278.66 193.599 278.321C195.462 278.003 197.421 277.484 199.005 276.428C198.304 276.513 197.602 276.591 196.9 276.657Z" fill="#92422B"/>
<path opacity="0.65" d="M223.984 255.137C223.86 254.654 223.667 254.196 223.396 253.833C223.245 253.63 223.092 253.435 222.913 253.278C222.847 253.22 222.779 253.168 222.709 253.12C222.626 253.064 222.542 252.999 222.45 252.975C222.352 252.949 222.252 252.934 222.152 252.915C222.084 252.924 222.016 252.933 221.948 252.942C221.835 252.97 221.731 253.026 221.635 253.11C221.475 253.23 221.308 253.404 221.218 253.623C221.14 253.813 221.072 254.011 221.004 254.208C220.962 254.328 220.957 254.528 220.995 254.679C220.977 254.804 220.969 254.93 220.964 255.057C220.946 255.09 220.927 255.121 220.912 255.155C220.897 255.19 220.887 255.227 220.874 255.263C217.727 257.776 213.887 258.639 210.348 259.598C205.924 260.797 201.54 262.157 197.083 263.141C187.424 265.274 177.596 266.412 167.803 266.277C166.691 266.262 165.577 266.156 164.466 266.172C163.769 266.182 163.073 266.236 162.376 266.228C161.828 266.222 161.265 266.198 160.723 266.057C160.259 265.262 159.618 264.197 158.841 264.014C158.079 263.835 156.949 264.714 157.168 265.913C157.875 269.799 162.371 268.231 164.41 268.084C169.572 267.712 174.72 267.36 179.872 266.771C184.885 266.197 189.895 265.495 194.887 264.654C197.357 264.238 199.818 263.754 202.268 263.159C204.557 262.604 206.823 261.903 209.106 261.31C213.215 260.243 217.614 259.428 221.287 256.583C221.34 256.608 221.392 256.636 221.45 256.648C221.633 256.686 221.815 256.719 222 256.739C222.235 256.764 222.471 256.776 222.705 256.819C222.65 256.808 222.596 256.798 222.541 256.787C222.694 256.819 222.839 256.839 222.993 256.797C223.216 256.736 223.417 256.583 223.587 256.389C223.722 256.235 223.827 256.065 223.904 255.851C223.979 255.644 224.043 255.365 223.984 255.137Z" fill="#92422B"/>
<path d="M286.372 105.096C285.664 96.96 282.742 88.704 277.786 82.099C275.362 78.869 272.336 75.982 268.695 74.093C264.797 72.07 260.402 71.173 256.005 71.185C247.003 71.208 238.01 74.606 230.702 79.621C227.595 81.753 224.743 84.286 222.26 87.092C219.765 89.911 217.138 93.366 216.683 97.183C216.586 97.998 216.613 98.829 216.761 99.636C216.876 100.263 217.818 99.967 218.091 99.66C219.337 98.255 221.226 97.638 223.027 97.232C224.946 96.799 226.909 96.605 228.857 96.342C229.248 96.289 229.52 95.96 229.582 95.65C231.542 95.522 233.511 95.493 235.471 95.477C240.775 95.434 246.336 95.458 251.34 97.396C253.72 98.318 255.908 99.74 257.93 101.261C259.963 102.791 261.843 104.51 263.575 106.36C266.982 109.999 269.927 114.116 272.301 118.467C273.072 119.881 273.745 121.343 274.344 122.834C274.876 124.16 275.416 125.515 275.779 126.896C276.336 129.015 276.454 131.596 277.863 133.392C278.211 133.835 278.85 133.461 279.104 133.126C280.459 131.342 281.309 129.216 282.042 127.13C282.805 124.959 283.554 122.775 284.274 120.591C285.917 115.612 286.827 110.329 286.372 105.096Z" fill="#410400"/>
<path d="M312.881 90.768C311.689 86.369 310.145 82.038 307.932 78.024C305.737 74.043 302.842 70.474 299.32 67.536C295.174 64.077 290.242 61.56 285.137 59.745C282.69 58.875 280.181 58.276 277.671 57.616C275.182 56.962 272.675 56.284 270.102 56.043C268.989 55.939 267.873 55.892 266.766 56.075C266.294 56.153 265.761 56.614 265.744 57.104C265.527 63.265 263.9 69.262 262.783 75.301C262.242 78.227 261.789 81.152 260.982 84.025C260.58 85.457 260.111 86.871 259.554 88.253C259.139 89.284 258.649 90.284 258.235 91.316C257.806 92.384 257.412 93.472 256.915 94.511C256.556 95.262 256.073 96.266 255.337 96.778C255.266 96.784 255.195 96.787 255.123 96.793C254.803 96.819 254.47 96.994 254.365 97.312C254.274 97.589 254.444 97.851 254.752 97.851C258.053 97.858 261.405 98.098 264.513 99.266C267.353 100.333 269.855 102.139 271.542 104.628C274.599 109.137 275.21 114.964 275.199 120.243C275.193 122.837 275.073 125.423 274.593 127.98C274.101 130.603 273.277 133.172 272.199 135.621C270.034 140.541 266.733 145.043 262.463 148.423C258.265 151.746 252.969 154.12 247.512 154.349C246.801 154.379 246.089 154.364 245.378 154.353C244.954 154.346 243.998 155.011 244.465 155.488C249.192 160.319 256.669 161.835 263.235 162.222C264.575 162.301 265.923 162.33 267.272 162.306C267.462 163.737 267.591 165.177 267.642 166.635C267.758 169.97 267.738 173.305 267.832 176.64C267.935 180.322 268.33 183.995 268.575 187.67C268.835 191.57 269.044 195.482 268.964 199.392C268.871 203.918 268.672 208.44 268.609 212.968C268.603 213.396 268.997 213.574 269.386 213.504C269.846 213.421 270.168 213.055 270.258 212.627C272.237 203.137 274.746 193.582 278.688 184.674C280.63 180.285 282.698 175.908 285.015 171.696C287.217 167.693 289.79 163.873 292.289 160.042C293.038 158.894 293.798 157.752 294.574 156.621C296.372 155.361 298.083 153.982 299.671 152.477C307.538 145.023 313.021 134.909 315.238 124.444C317.603 113.267 315.836 101.676 312.881 90.768Z" fill="#80492E"/>
<path opacity="0.55" d="M253.055 153.823C256.345 153.007 259.582 152.011 262.811 150.994C267.257 149.594 271.354 147.236 274.808 144.163C276.635 142.538 278.284 140.718 279.692 138.733C280.99 136.902 282.057 134.923 282.998 132.896C284.683 129.268 285.783 125.385 286.37 121.446C286.971 117.418 287.021 113.306 286.573 109.26C286.124 105.201 285.15 101.19 283.663 97.375C282.195 93.611 280.201 90.028 277.69 86.83C275.182 83.636 272.14 80.847 268.68 78.66C268.506 78.55 268.419 78.261 268.608 78.113C270.768 76.426 273.32 75.283 276.112 75.191C280.805 75.036 285.084 77.691 288.407 80.693C291.116 83.14 293.472 86.02 295.412 89.113C294.913 87.62 294.35 86.148 293.693 84.715C291.83 80.647 289.29 76.819 285.883 73.825C282.379 70.746 278.054 68.793 273.395 68.13C273.005 68.074 273.113 67.567 273.395 67.458C273.982 67.231 274.575 67.017 275.174 66.82C279.547 65.38 284.225 64.817 288.814 65.358C293.073 65.86 297.181 67.269 300.863 69.416C301.319 69.682 301.768 69.959 302.21 70.246C301.297 69.295 300.337 68.387 299.318 67.536C295.172 64.077 290.24 61.56 285.135 59.745C282.688 58.875 280.179 58.276 277.669 57.616C275.18 56.962 272.673 56.284 270.1 56.043C268.987 55.939 267.871 55.892 266.764 56.075C266.292 56.153 265.759 56.614 265.742 57.104C265.525 63.265 263.898 69.262 262.781 75.301C262.24 78.227 261.787 81.151 260.98 84.025C260.578 85.457 260.109 86.871 259.552 88.253C259.137 89.284 258.647 90.284 258.233 91.315C257.804 92.383 257.41 93.471 256.913 94.511C256.554 95.262 256.071 96.266 255.335 96.778C255.264 96.784 255.193 96.787 255.121 96.793C254.801 96.819 254.468 96.994 254.363 97.312C254.272 97.589 254.442 97.851 254.75 97.851C258.051 97.858 261.403 98.098 264.511 99.266C267.351 100.333 269.853 102.139 271.54 104.628C274.597 109.137 275.208 114.964 275.197 120.243C275.191 122.837 275.071 125.423 274.591 127.98C274.099 130.603 273.275 133.172 272.197 135.621C270.032 140.541 266.731 145.043 262.461 148.423C258.263 151.746 252.967 154.12 247.51 154.349C246.799 154.379 246.087 154.364 245.376 154.353C244.965 154.347 244.055 154.973 244.429 155.446C247.342 155.126 250.225 154.525 253.055 153.823Z" fill="#80492E"/>
<path d="M270.367 59.026C269.977 55.756 269.095 52.55 267.782 49.519C265.074 43.268 260.686 37.82 255.46 33.386C249.964 28.722 243.504 25.249 236.739 22.683C233.329 21.389 229.82 20.287 226.261 19.457C222.303 18.533 218.245 18.037 214.185 17.819C206.062 17.382 197.936 18.04 189.833 18.541C185.198 18.827 180.537 19.116 175.89 19.107C171.605 19.099 167.162 18.89 163.047 17.627C159.678 16.593 156.282 14.554 155.514 10.942C155.308 9.97201 155.304 8.99601 155.414 8.01301C155.479 7.43401 154.585 7.76001 154.462 8.10601C153.619 10.478 152.843 12.864 152.608 15.38C152.468 16.878 152.515 18.465 152.946 19.927C151.638 19.89 150.33 19.868 149.021 19.858C129.219 19.7 110.452 26.367 96.966 41.045C90.789 47.768 86.601 56.113 79.516 62.045C76.376 64.674 72.91 67.024 69.197 68.809C65.448 70.612 61.288 71.933 57.063 71.674C56.075 71.613 55.117 71.436 54.152 71.227C53.534 71.093 52.307 72.02 53.092 72.557C55.491 74.198 57.982 75.777 60.851 76.503C61.672 76.711 62.5 76.83 63.328 76.882C62.665 77.475 62.027 78.079 61.416 78.674C57.758 82.232 54.69 86.335 52.557 90.94C51.331 93.586 50.452 96.378 50.031 99.256C49.921 100.007 50.978 99.947 51.375 99.651C53.59 98.003 55.638 96.168 57.667 94.311C55.642 97.205 53.985 100.335 52.824 103.708C50.682 109.932 50.306 116.584 51.215 123.064C51.309 123.738 51.418 124.409 51.539 125.077C51.786 126.997 52.15 128.899 52.634 130.767C58.929 155.073 85.043 167.383 96.338 188.951C98.773 193.6 100.382 198.597 102.63 203.327C103.166 204.456 105.207 208.615 105.827 209.701C106.288 210.51 108.459 163.184 109.034 159.867C109.564 156.807 110.193 153.641 111.434 150.752C114.485 153.511 118.187 155.559 122.233 156.879C122.733 157.042 123.824 156.287 123.332 155.759C120.119 152.312 116.034 146.104 120.375 141.985C122.362 140.099 125.227 139.247 127.885 138.776C130.82 138.255 133.824 138.191 136.799 138.287C151.216 138.75 165.21 142.788 179.602 143.457C193.103 144.085 207.286 141.27 217.937 132.692C228.729 124 232.693 110.635 238.024 98.547C239.383 95.466 240.843 92.393 242.627 89.522C244.079 87.185 246.193 84.867 248.862 83.866C251.597 82.841 254.668 84.107 256.162 86.514C257.47 88.621 257.614 91.471 256.954 93.808C256.775 94.442 256.537 95.064 256.217 95.64C255.894 95.921 255.566 96.196 255.237 96.469C255.089 96.33 254.732 96.411 254.618 96.628C254.449 96.947 253.818 97.505 254.578 97.691C254.888 97.767 255.231 97.506 255.487 97.369C255.821 97.189 256.143 97.011 256.455 96.795C257.721 95.923 258.874 94.915 259.933 93.811C262.043 91.611 263.764 89.088 265.139 86.393C267.954 80.874 269.51 74.816 270.242 68.71C270.631 65.483 270.752 62.259 270.367 59.026Z" fill="#80492E"/>
<path d="M120.768 69.861C116.744 72.885 111.583 74.07 106.57 73.63C101.606 73.194 96.764 71.216 93.049 67.957C91.005 66.164 89.382 63.923 88.4 61.413C88.208 60.923 87.417 61.22 87.32 61.638C86.457 65.346 86.012 69.273 87.153 72.977C88.16 76.246 90.429 78.877 93.646 80.243C95.876 81.19 98.293 81.433 100.699 81.242C101.064 81.213 101.496 80.579 100.941 80.551C97.299 80.366 93.408 79.607 90.806 76.906C88.503 74.516 87.6 71.212 87.549 67.994C87.525 66.462 87.668 64.927 87.964 63.422C89.942 67.483 93.509 70.586 97.69 72.474C102.457 74.626 108.021 75.226 113.138 74.025C116.024 73.348 118.727 72.058 121.01 70.199C121.283 69.979 121.06 69.642 120.768 69.861Z" fill="#483C36"/>
<path d="M78.554 156.084C72.123 151.808 68.45 144.483 66.666 137.278C64.72 129.42 64.759 120.883 67.891 113.316C68.945 110.77 70.29 108.256 72.053 106.106C73.787 103.992 75.929 102.219 77.462 99.945C77.562 99.796 77.329 99.781 77.251 99.885C75.663 101.99 73.536 103.616 71.765 105.562C70.072 107.422 68.685 109.586 67.559 111.815C65.533 115.825 64.448 120.367 64.193 124.823C63.974 128.656 64.32 132.534 65.105 136.293C65.926 140.226 67.245 144.132 69.239 147.652C71.328 151.338 74.151 154.656 78.011 156.642C78.323 156.801 78.911 156.322 78.554 156.084Z" fill="#483C36"/>
<path d="M101.728 182.327C99.452 180.145 97.132 178.007 94.918 175.763C92.543 173.356 90.293 170.824 88.203 168.176C84.037 162.899 80.537 157.055 78.505 150.664C77.409 147.219 76.828 143.628 76.955 140.016C76.964 139.751 76.536 139.898 76.521 140.106C76.033 146.707 77.849 153.187 80.849 159.056C83.972 165.166 88.226 170.693 93.002 175.656C95.522 178.274 98.19 180.777 101.148 182.92C101.471 183.155 102.046 182.631 101.728 182.327Z" fill="#483C36"/>
<path d="M312.747 117.398C310.775 116.878 308.863 115.985 307.273 114.726C305.628 113.423 304.286 111.789 303.173 110.037C300.683 106.118 299.112 101.72 297.667 97.352C296.324 93.293 295.188 89.102 293.319 85.234C291.071 80.58 287.218 76.58 282.232 74.741C277.213 72.889 271.653 73.432 267.05 76.095C266.405 76.468 265.784 76.877 265.182 77.311C264.939 77.486 265.049 77.861 265.356 77.673C269.879 74.914 275.49 73.832 280.632 75.468C285.741 77.093 289.733 80.976 292.048 85.649C293.91 89.408 295.016 93.511 296.299 97.481C297.698 101.812 299.178 106.203 301.532 110.143C303.035 112.66 305.075 115.134 307.657 116.698C305.215 116.407 302.829 115.875 300.537 114.855C297.281 113.406 294.349 111.154 292.416 108.185C291.251 106.396 290.484 104.408 290.07 102.329C290.038 102.169 289.799 102.305 289.818 102.432C290.391 106.118 292.078 109.556 294.773 112.208C297.416 114.807 300.851 116.476 304.467 117.349C306.49 117.838 308.544 118.089 310.621 117.981C310.656 117.99 310.69 118.003 310.725 118.012C311.234 118.144 311.753 118.236 312.274 118.306C312.68 118.36 313.262 117.534 312.747 117.398Z" fill="#483C36"/>
<path d="M295.43 126.54C295.399 126.44 295.232 126.53 295.25 126.617C296.521 132.854 295.385 139.288 291.94 144.692C288.641 149.866 283.656 153.943 278.389 157.11C275.355 158.934 272.231 160.475 268.952 161.836C268.77 161.911 268.722 162.258 268.982 162.176C275.173 160.24 281.157 157.116 286.074 152.947C290.855 148.893 294.858 143.592 296.119 137.427C296.866 133.772 296.549 130.091 295.43 126.54Z" fill="#483C36"/>
<path opacity="0.55" d="M267.782 49.519C265.726 44.774 262.701 40.493 259.078 36.766C256.18 35.366 253.142 34.235 250.074 33.258C245.036 31.654 239.893 30.438 234.618 29.873C223.16 28.645 211.868 30.657 201.388 35.149C204.24 34.765 207.086 34.34 209.943 33.994C217.865 33.036 226.105 32.368 234.007 33.828C240.949 35.111 247.464 38.603 249.443 45.666C249.516 45.925 249.267 46.16 249.005 46.095C241.304 44.159 233.313 45.885 226.189 48.992C219.758 51.796 213.838 55.68 208.355 59.974C203.826 63.521 199.597 67.419 195.17 71.085C190.387 75.046 185.401 78.878 179.903 81.854C178.887 82.404 177.837 82.931 176.763 83.417C193.504 79.04 207.468 67.887 223.714 62.15C226.903 61.024 230.232 60.057 233.627 59.801C236.144 59.611 239.041 59.832 240.969 61.616C243.425 63.889 243.148 67.668 242.695 70.644C241.931 75.668 239.763 80.433 237.16 84.791C234.489 89.263 231.267 93.421 227.772 97.306C224.339 101.122 220.644 104.766 216.591 107.953C208.265 114.499 198.493 119.129 188.112 121.577C178.418 123.863 168.605 124.056 158.713 123.245C152.504 122.736 146.298 122.201 140.061 122.171C129.158 122.119 109.466 123.157 109.592 137.825C109.596 138.24 109.025 138.27 108.892 137.917C107.419 134.003 107.131 129.773 107.658 125.654C108.672 117.731 112.386 110.178 117.383 103.928C121.455 98.836 126.711 94.222 132.898 91.743C127.957 92.497 123.183 94.17 118.84 96.611C109.506 101.858 102.146 110.654 99.721 121.008C98.527 126.107 98.9 131.211 100.333 136.229C101.73 141.123 104.049 146.166 107.943 149.652C108.048 149.746 108.09 149.958 107.999 150.074C101.14 158.761 103.076 170.793 103.416 180.99C103.425 181.253 103.106 181.425 102.88 181.291C98.588 178.741 94.726 175.547 91.426 171.845C80.158 159.204 75.464 141.344 78.439 124.895C75.515 127.738 74.232 131.876 73.781 135.81C73.293 140.067 73.633 144.518 74.999 148.599C75.135 149.006 74.57 149.159 74.348 148.867C71.936 145.71 69.7 142.388 68.36 138.646C65.898 131.77 66.797 124.294 69.535 117.638C72.109 111.381 76.018 105.764 78.866 99.632C75.775 101.194 73.043 103.333 70.751 105.902C61.955 115.76 58.997 131.624 64.466 143.686C64.602 143.986 64.311 144.353 63.978 144.163C60.85 142.368 58.356 139.737 56.445 136.744C53.801 132.604 52.172 127.885 51.215 123.066C51.309 123.739 51.417 124.408 51.538 125.075C51.785 126.995 52.149 128.897 52.633 130.765C58.928 155.071 85.042 167.381 96.337 188.949C98.772 193.598 100.381 198.595 102.629 203.325C103.165 204.454 105.206 208.613 105.826 209.699C106.287 210.508 108.458 163.182 109.033 159.865C109.563 156.805 110.192 153.639 111.433 150.75C114.484 153.509 118.186 155.557 122.232 156.877C122.732 157.04 123.823 156.285 123.331 155.757C120.118 152.31 116.033 146.102 120.374 141.983C122.361 140.097 125.226 139.245 127.884 138.774C130.819 138.253 133.823 138.189 136.798 138.285C151.215 138.748 165.209 142.786 179.601 143.455C193.102 144.083 207.285 141.268 217.936 132.69C228.728 123.998 232.692 110.633 238.023 98.545C239.382 95.464 240.842 92.391 242.626 89.52C244.078 87.184 246.192 84.865 248.861 83.864C251.596 82.839 254.666 84.105 256.161 86.512C257.469 88.619 257.613 91.469 256.953 93.806C256.774 94.44 256.536 95.062 256.216 95.638C255.893 95.919 255.565 96.194 255.236 96.467C255.088 96.328 254.731 96.409 254.617 96.626C254.448 96.945 253.817 97.503 254.577 97.689C254.887 97.765 255.23 97.504 255.486 97.367C255.82 97.187 256.142 97.009 256.454 96.793C257.72 95.921 258.873 94.913 259.932 93.809C262.042 91.609 263.763 89.086 265.138 86.391C267.953 80.872 269.509 74.814 270.241 68.708C270.628 65.481 270.749 62.258 270.363 59.024C269.977 55.755 269.095 52.55 267.782 49.519Z" fill="#80492E"/>
<path d="M252.914 54.415C248.943 51.695 244.272 50.308 239.428 50.328C234.515 50.348 229.692 51.662 225.173 53.468C216.164 57.068 208.099 62.527 200.192 67.99C192.341 73.415 184.401 78.93 175.405 82.41C170.99 84.118 166.247 85.481 161.479 85.684C159.089 85.786 156.645 85.583 154.381 84.79C152.233 84.038 150.604 82.603 149.199 80.886C148.526 80.064 147.914 79.197 147.268 78.356C146.97 77.969 146.214 78.504 146.446 78.919C147.758 81.258 148.546 83.813 149.678 86.231C150.85 88.735 152.506 90.796 154.756 92.462C159.33 95.85 164.987 97.427 170.696 97.258C173.977 97.161 177.169 96.492 180.265 95.448C180.7 95.302 180.772 94.519 180.197 94.686C174.884 96.225 169.135 96.856 163.709 95.498C161.007 94.822 158.454 93.679 156.165 92.121C153.862 90.553 152.071 88.631 150.819 86.17C150.198 84.948 149.685 83.681 149.164 82.417C149.565 82.878 149.986 83.323 150.446 83.733C152.112 85.22 154.228 86.054 156.425 86.464C161.034 87.325 165.902 86.467 170.355 85.23C179.626 82.654 187.859 77.786 195.731 72.47C203.616 67.145 211.28 61.5 219.832 57.207C228.304 52.954 238.303 49.611 247.626 53.294C251.836 54.956 255.446 57.938 258.206 61.427C260.893 64.824 262.76 69.016 262.632 73.372C262.599 74.486 262.434 75.591 262.153 76.671C262.102 76.865 262.392 76.817 262.439 76.676C265.283 68.135 259.982 59.256 252.914 54.415Z" fill="#483C36"/>
<path d="M254.921 43.436C254.22 42.161 253.276 41.01 252.215 40.005C249.921 37.832 247.136 36.178 244.273 34.823C237.03 31.393 229.018 29.962 221.004 29.935C211.789 29.904 202.689 31.662 193.656 33.254C189.049 34.066 184.468 34.982 179.885 35.91C175.575 36.783 171.208 37.547 166.797 37.645C160.727 37.779 152.74 36.549 150.687 29.955C150.442 29.169 150.184 28.378 150.126 27.555C150.104 27.237 149.659 27.388 149.588 27.607C148.729 30.27 148.097 33.128 148.62 35.918C149.152 38.76 150.875 41.23 153.086 43.09C153.288 43.26 153.771 42.887 153.576 42.679C151.672 40.646 149.879 38.471 149.278 35.712C148.8 33.519 149.09 31.29 149.661 29.144C149.686 29.44 149.72 29.735 149.784 30.024C149.943 30.74 150.182 31.436 150.493 32.102C151.076 33.352 151.924 34.45 152.979 35.355C155.252 37.304 158.249 38.146 161.188 38.527C170.013 39.671 178.897 37.071 187.477 35.421C192.186 34.516 196.913 33.7 201.642 32.9C206.179 32.133 210.719 31.424 215.318 31.123C223.941 30.558 232.712 31.338 240.805 34.447C246.38 36.588 252.508 39.875 255.028 45.479C255.318 46.125 255.488 46.791 255.583 47.489C255.615 47.723 256.062 47.539 256.046 47.342C255.93 45.97 255.589 44.651 254.921 43.436Z" fill="#483C36"/>
<path d="M134.795 92.196C133.369 92.438 131.939 92.664 130.532 92.999C129.108 93.338 127.711 93.791 126.329 94.265C123.498 95.237 120.748 96.409 118.114 97.816C112.901 100.601 108.134 104.242 104.564 108.919C101.072 113.494 98.847 119.119 98.637 124.849C98.432 130.432 99.916 136.073 102.519 141.024C105.077 145.89 108.944 150.384 114.132 152.666C114.754 152.94 115.391 153.179 116.038 153.389C116.42 153.513 116.955 152.887 116.48 152.696C111.45 150.666 107.441 146.624 104.703 142.105C101.876 137.44 100.16 131.989 99.98 126.56C99.798 121.061 101.472 115.625 104.495 111.002C107.569 106.301 111.968 102.579 116.827 99.717C121.789 96.794 127.207 94.924 132.682 93.16C133.374 92.937 134.069 92.73 134.772 92.542C134.975 92.485 135.084 92.147 134.795 92.196Z" fill="#483C36"/>
<defs>
<linearGradient id="paint0_linear_1_2" x1="248.703" y1="299.474" x2="248.703" y2="378.849" gradientUnits="userSpaceOnUse">
<stop offset="0.55" stop-color="#674378"/>
<stop offset="1" stop-color="#BF7CDE" stop-opacity="0"/>
</linearGradient>
<linearGradient id="paint1_linear_1_2" x1="248.687" y1="298.987" x2="248.687" y2="379.421" gradientUnits="userSpaceOnUse">
<stop offset="0.55" stop-color="#8853A1"/>
<stop offset="1" stop-color="#321E3B" stop-opacity="0"/>
</linearGradient>
<linearGradient id="paint2_linear_1_2" x1="132.376" y1="299.519" x2="132.376" y2="378.94" gradientUnits="userSpaceOnUse">
<stop offset="0.55" stop-color="#674378"/>
<stop offset="1" stop-color="#BF7CDE" stop-opacity="0"/>
</linearGradient>
<linearGradient id="paint3_linear_1_2" x1="132.392" y1="299.031" x2="132.392" y2="379.513" gradientUnits="userSpaceOnUse">
<stop offset="0.55" stop-color="#8853A1"/>
<stop offset="1" stop-color="#321E3B" stop-opacity="0"/>
</linearGradient>
<linearGradient id="paint4_linear_1_2" x1="190.687" y1="348.815" x2="190.687" y2="505.343" gradientUnits="userSpaceOnUse">
<stop offset="0.531" stop-color="#182327"/>
<stop offset="1" stop-color="#111618" stop-opacity="0"/>
</linearGradient>
<linearGradient id="paint5_linear_1_2" x1="290.441" y1="354.653" x2="290.441" y2="505.342" gradientUnits="userSpaceOnUse">
<stop offset="0.531" stop-color="#182327"/>
<stop offset="1" stop-color="#111618" stop-opacity="0"/>
</linearGradient>
<linearGradient id="paint6_linear_1_2" x1="89.0896" y1="353.653" x2="89.0896" y2="505.342" gradientUnits="userSpaceOnUse">
<stop offset="0.531" stop-color="#182327"/>
<stop offset="1" stop-color="#111618" stop-opacity="0"/>
</linearGradient>
<linearGradient id="paint7_linear_1_2" x1="86.6044" y1="356.697" x2="86.6044" y2="505.342" gradientUnits="userSpaceOnUse">
<stop offset="0.551" stop-color="#8E55A9"/>
<stop offset="1" stop-color="#392243" stop-opacity="0"/>
</linearGradient>
<linearGradient id="paint8_linear_1_2" x1="123.617" y1="357.158" x2="123.617" y2="459.697" gradientUnits="userSpaceOnUse">
<stop offset="0.551" stop-color="#8E55A9"/>
<stop offset="1" stop-color="#392243" stop-opacity="0"/>
</linearGradient>
<linearGradient id="paint9_linear_1_2" x1="59.0837" y1="449.5" x2="59.0837" y2="505.343" gradientUnits="userSpaceOnUse">
<stop offset="0.261" stop-color="#674378"/>
<stop offset="0.621" stop-color="#BF7CDE" stop-opacity="0"/>
</linearGradient>
<linearGradient id="paint10_linear_1_2" x1="121.829" y1="299.173" x2="121.829" y2="441.11" gradientUnits="userSpaceOnUse">
<stop offset="0.551" stop-color="#8E55A9"/>
<stop offset="1" stop-color="#392243" stop-opacity="0"/>
</linearGradient>
<linearGradient id="paint11_linear_1_2" x1="121.729" y1="299.173" x2="121.729" y2="376.987" gradientUnits="userSpaceOnUse">
<stop offset="0.551" stop-color="#8E55A9"/>
<stop offset="1" stop-color="#392243" stop-opacity="0"/>
</linearGradient>
<linearGradient id="paint12_linear_1_2" x1="294.841" y1="357.047" x2="294.841" y2="505.343" gradientUnits="userSpaceOnUse">
<stop offset="0.551" stop-color="#8E55A9"/>
<stop offset="1" stop-color="#392243" stop-opacity="0"/>
</linearGradient>
<linearGradient id="paint13_linear_1_2" x1="257.709" y1="357.047" x2="257.709" y2="464.322" gradientUnits="userSpaceOnUse">
<stop offset="0.551" stop-color="#8E55A9"/>
<stop offset="1" stop-color="#392243" stop-opacity="0"/>
</linearGradient>
<linearGradient id="paint14_linear_1_2" x1="322.197" y1="449.327" x2="322.197" y2="505.342" gradientUnits="userSpaceOnUse">
<stop stop-color="#674378"/>
<stop offset="0.801" stop-color="#BF7CDE" stop-opacity="0"/>
</linearGradient>
<linearGradient id="paint15_linear_1_2" x1="259.354" y1="298.865" x2="259.354" y2="441.069" gradientUnits="userSpaceOnUse">
<stop offset="0.551" stop-color="#8E55A9"/>
<stop offset="1" stop-color="#392243" stop-opacity="0"/>
</linearGradient>
<linearGradient id="paint16_linear_1_2" x1="262.638" y1="298.866" x2="262.638" y2="368.416" gradientUnits="userSpaceOnUse">
<stop offset="0.551" stop-color="#8E55A9"/>
<stop offset="1" stop-color="#392243" stop-opacity="0"/>
</linearGradient>
</defs>
</svg>
